<?xml version="1.0" encoding="UTF-8" standalone="no" ?>
<!DOCTYPE svg PUBLIC "-//W3C//DTD SVG 1.1//EN" "http://www.w3.org/Graphics/SVG/1.1/DTD/svg11.dtd">
<svg xmlns="http://www.w3.org/2000/svg" xmlns:xlink="http://www.w3.org/1999/xlink" version="1.1" width="1080" height="1080" viewBox="0 0 1080 1080" xml:space="preserve">
<desc>Created with Fabric.js 5.2.4</desc>
<defs>
</defs>
<g transform="matrix(1 0 0 1 540 540)" id="de38f71f-e72b-43ba-8c20-7d6799ce7dc9"  >
<rect style="stroke: none; stroke-width: 1; stroke-dasharray: none; stroke-linecap: butt; stroke-dashoffset: 0; stroke-linejoin: miter; stroke-miterlimit: 4; fill: rgb(255,255,255); fill-rule: nonzero; opacity: 1; visibility: hidden;" vector-effect="non-scaling-stroke"  x="-540" y="-540" rx="0" ry="0" width="1080" height="1080" />
</g>
<g transform="matrix(1 0 0 1 540 540)" id="5f264d2f-54f1-4b42-af41-bcbd1b4dbabe"  >
</g>
<g transform="matrix(3.94 0 0 1 732.86 540)"  >
<g style="" vector-effect="non-scaling-stroke"   >
		<g transform="matrix(1 0 0 1 -48.09 0)"  >
<path style="stroke: none; stroke-width: 1; stroke-dasharray: none; stroke-linecap: butt; stroke-dashoffset: 0; stroke-linejoin: miter; stroke-miterlimit: 4; fill: rgb(37,99,235); fill-rule: evenodd; opacity: 1;" vector-effect="non-scaling-stroke"  transform=" translate(-17, -22)" d="M 17 39 C 26.3888 39 34 31.3888 34 22 C 34 12.6112 26.3888 5 17 5 C 7.61114 5 0 12.6112 0 22 C 0 31.3888 7.61114 39 17 39 Z M 22.3034 12.9193 C 22.5616 12.0023 21.6717 11.4601 20.859 12.0391 L 9.51415 20.1211 C 8.63278 20.749 8.77142 22 9.7224 22 L 12.7098 22 L 12.7098 21.9768 L 18.5321 21.9768 L 13.788 23.6508 L 11.6966 31.0807 C 11.4385 31.9977 12.3282 32.5399 13.141 31.9609 L 24.4859 23.8789 C 25.3672 23.251 25.2285 22 24.2776 22 L 19.7473 22 L 22.3034 12.9193 Z" stroke-linecap="round" />
</g>
		<g transform="matrix(1 0 0 1 22.58 -2.38)"  >
<path style="stroke: none; stroke-width: 1; stroke-dasharray: none; stroke-linecap: butt; stroke-dashoffset: 0; stroke-linejoin: miter; stroke-miterlimit: 4; fill: rgb(255,255,255); fill-rule: nonzero; opacity: 1;" vector-effect="non-scaling-stroke"  transform=" translate(-87.67, -19.62)" d="M 45.16 30 L 45.16 8.91 L 49.24 8.91 L 49.24 30 L 45.16 30 Z M 48.16 30 L 48.16 26.4 L 59.83 26.4 L 59.83 30 L 48.16 30 Z M 48.16 20.97 L 48.16 17.49 L 58.78 17.49 L 58.78 20.97 L 48.16 20.97 Z M 48.16 12.51 L 48.16 8.91 L 59.68 8.91 L 59.68 12.51 L 48.16 12.51 Z M 67.7669 30.33 C 66.9469 30.33 66.1369 30.22 65.3369 30 C 64.5569 29.78 63.8369 29.48 63.1769 29.1 C 62.5169 28.7 61.9469 28.22 61.4669 27.66 L 63.8069 25.29 C 64.3069 25.85 64.8869 26.27 65.5469 26.55 C 66.2069 26.83 66.9369 26.97 67.7369 26.97 C 68.3769 26.97 68.8569 26.88 69.1769 26.7 C 69.5169 26.52 69.6869 26.25 69.6869 25.89 C 69.6869 25.49 69.5069 25.18 69.1469 24.96 C 68.8069 24.74 68.3569 24.56 67.7969 24.42 C 67.2369 24.26 66.6469 24.09 66.0269 23.91 C 65.4269 23.71 64.8469 23.46 64.2869 23.16 C 63.7269 22.84 63.2669 22.41 62.9069 21.87 C 62.5669 21.31 62.3969 20.59 62.3969 19.71 C 62.3969 18.79 62.6169 17.99 63.0569 17.31 C 63.5169 16.63 64.1669 16.1 65.0069 15.72 C 65.8469 15.34 66.8369 15.15 67.9769 15.15 C 69.1769 15.15 70.2569 15.36 71.2169 15.78 C 72.1969 16.2 73.0069 16.83 73.6469 17.67 L 71.2769 20.04 C 70.8369 19.5 70.3369 19.11 69.7769 18.87 C 69.2369 18.63 68.6469 18.51 68.0069 18.51 C 67.4269 18.51 66.9769 18.6 66.6569 18.78 C 66.3569 18.96 66.2069 19.21 66.2069 19.53 C 66.2069 19.89 66.3769 20.17 66.7169 20.37 C 67.0769 20.57 67.5369 20.75 68.0969 20.91 C 68.6569 21.05 69.2369 21.22 69.8369 21.42 C 70.4569 21.6 71.0369 21.86 71.5769 22.2 C 72.1369 22.54 72.5869 22.99 72.9269 23.55 C 73.2869 24.11 73.4669 24.83 73.4669 25.71 C 73.4669 27.13 72.9569 28.26 71.9369 29.1 C 70.9169 29.92 69.5269 30.33 67.7669 30.33 Z M 78.247 30 L 78.247 9.48 L 82.177 9.48 L 82.177 30 L 78.247 30 Z M 74.857 18.96 L 74.857 15.51 L 85.567 15.51 L 85.567 18.96 L 74.857 18.96 Z M 93.4855 30.3 C 92.1655 30.3 90.9755 29.97 89.9155 29.31 C 88.8555 28.65 88.0255 27.75 87.4255 26.61 C 86.8255 25.47 86.5255 24.19 86.5255 22.77 C 86.5255 21.33 86.8255 20.04 87.4255 18.9 C 88.0255 17.76 88.8555 16.86 89.9155 16.2 C 90.9755 15.54 92.1655 15.21 93.4855 15.21 C 94.5255 15.21 95.4555 15.42 96.2755 15.84 C 97.0955 16.26 97.7455 16.85 98.2255 17.61 C 98.7255 18.35 98.9955 19.19 99.0355 20.13 L 99.0355 25.35 C 98.9955 26.31 98.7255 27.16 98.2255 27.9 C 97.7455 28.64 97.0955 29.23 96.2755 29.67 C 95.4555 30.09 94.5255 30.3 93.4855 30.3 Z M 94.2055 26.67 C 95.3055 26.67 96.1955 26.31 96.8755 25.59 C 97.5555 24.85 97.8955 23.9 97.8955 22.74 C 97.8955 21.98 97.7355 21.31 97.4155 20.73 C 97.1155 20.13 96.6855 19.67 96.1255 19.35 C 95.5855 19.01 94.9455 18.84 94.2055 18.84 C 93.4855 18.84 92.8455 19.01 92.2855 19.35 C 91.7455 19.67 91.3155 20.13 90.9955 20.73 C 90.6955 21.31 90.5455 21.98 90.5455 22.74 C 90.5455 23.52 90.6955 24.21 90.9955 24.81 C 91.3155 25.39 91.7455 25.85 92.2855 26.19 C 92.8455 26.51 93.4855 26.67 94.2055 26.67 Z M 97.6855 30 L 97.6855 26.1 L 98.3155 22.56 L 97.6855 19.08 L 97.6855 15.51 L 101.586 15.51 L 101.586 30 L 97.6855 30 Z M 107.192 30 L 107.192 9.48 L 111.122 9.48 L 111.122 30 L 107.192 30 Z M 103.802 18.96 L 103.802 15.51 L 114.512 15.51 L 114.512 18.96 L 103.802 18.96 Z M 123.301 30.3 C 121.781 30.3 120.431 29.98 119.251 29.34 C 118.071 28.68 117.131 27.78 116.431 26.64 C 115.751 25.5 115.411 24.2 115.411 22.74 C 115.411 21.3 115.741 20.02 116.401 18.9 C 117.081 17.76 118.001 16.86 119.161 16.2 C 120.321 15.52 121.611 15.18 123.031 15.18 C 124.431 15.18 125.661 15.5 126.721 16.14 C 127.801 16.76 128.641 17.62 129.241 18.72 C 129.861 19.8 130.171 21.03 130.171 22.41 C 130.171 22.67 130.151 22.94 130.111 23.22 C 130.091 23.48 130.041 23.78 129.961 24.12 L 117.781 24.15 L 117.781 21.21 L 128.131 21.18 L 126.541 22.41 C 126.501 21.55 126.341 20.83 126.061 20.25 C 125.801 19.67 125.411 19.23 124.891 18.93 C 124.391 18.61 123.771 18.45 123.031 18.45 C 122.251 18.45 121.571 18.63 120.991 18.99 C 120.411 19.33 119.961 19.82 119.641 20.46 C 119.341 21.08 119.191 21.82 119.191 22.68 C 119.191 23.56 119.351 24.33 119.671 24.99 C 120.011 25.63 120.491 26.13 121.111 26.49 C 121.731 26.83 122.451 27 123.271 27 C 124.011 27 124.681 26.88 125.281 26.64 C 125.881 26.38 126.401 26 126.841 25.5 L 129.151 27.81 C 128.451 28.63 127.591 29.25 126.571 29.67 C 125.571 30.09 124.481 30.3 123.301 30.3 Z" stroke-linecap="round" />
</g>
</g>
</g>
<g transform="matrix(1 0 0 1 727.98 540)" style="" id="b83a1907-af00-4a40-b44a-1a638251a3cf"  >
		<text xml:space="preserve" font-family="Lato" font-size="40" font-style="normal" font-weight="400" style="stroke: none; stroke-width: 1; stroke-dasharray: none; stroke-linecap: butt; stroke-dashoffset: 0; stroke-linejoin: miter; stroke-miterlimit: 4; fill: rgb(255,251,251); fill-rule: nonzero; opacity: 1; white-space: pre;" ><tspan x="-114.8" y="12.57" >Quick-Estate</tspan></text>
</g>
</svg>