<?xml version="1.0" encoding="utf-8"?>
<svg width="131" height="39" viewBox="0 0 131 39" fill="none" xmlns="http://www.w3.org/2000/svg">
  <path fill-rule="evenodd" clip-rule="evenodd" d="M17 39C26.3888 39 34 31.3888 34 22C34 12.6112 26.3888 5 17 5C7.61114 5 0 12.6112 0 22C0 31.3888 7.61114 39 17 39ZM22.3034 12.9193C22.5616 12.0023 21.6717 11.4601 20.859 12.0391L9.51415 20.1211C8.63278 20.749 8.77142 22 9.7224 22H12.7098V21.9768H18.5321L13.788 23.6508L11.6966 31.0807C11.4385 31.9977 12.3282 32.5399 13.141 31.9609L24.4859 23.8789C25.3672 23.251 25.2285 22 24.2776 22H19.7473L22.3034 12.9193Z" fill="white"/>
  <text style="fill: rgb(8, 119, 247); font-family: Arial, sans-serif; font-size: 7px; stroke: rgb(253, 254, 255); white-space: pre;" transform="matrix(1.36763, 0.005271, 0, 2.361905, -14.08254, -23.420458)" x="36.076" y="21.989">QUICK - ESTATE</text>
  <text style="white-space: pre; fill: rgb(51, 51, 51); font-family: Arial, sans-serif; font-size: 28px;" x="65.22" y="10.137"> </text>
  <text style="white-space: pre; fill: rgb(51, 51, 51); font-family: Arial, sans-serif; font-size: 28px;" x="80.053" y="8.125"> </text>
</svg>