<?xml version="1.0" encoding="UTF-8"?>
<svg id="Layer_1" xmlns="http://www.w3.org/2000/svg" version="1.1" viewBox="0 0 232 39">
  <!-- Generator: Adobe Illustrator 29.2.1, SVG Export Plug-In . SVG Version: 2.1.0 Build 116)  -->
  <defs>
    <style>
      .st0 {
        fill-rule: evenodd;
      }

      .st0, .st1, .st2 {
        fill: #fff;
      }

      .st1, .st3 {
        display: none;
      }

      .st4, .st2 {
        isolation: isolate;
      }

      .st2 {
        font-family: MyriadPro-Semibold, 'Myriad Pro';
        font-size: 34px;
        font-weight: 600;
      }
    </style>
  </defs>
  <path class="st3" d="M45.2,30V8.9h4.1v21.1h-4.1ZM48.2,30v-3.6h11.7v3.6h-11.7ZM48.2,21v-3.5h10.6v3.5h-10.6ZM48.2,12.5v-3.6h11.5v3.6h-11.5ZM67.8,30.3c-.8,0-1.6-.1-2.4-.3-.8-.2-1.5-.5-2.2-.9s-1.2-.9-1.7-1.4l2.3-2.4c.5.6,1.1,1,1.7,1.3.7.3,1.4.4,2.2.4s1.1,0,1.4-.3c.3-.2.5-.5.5-.8s-.2-.7-.5-.9c-.3-.2-.8-.4-1.3-.5-.6-.2-1.2-.3-1.8-.5-.6-.2-1.2-.5-1.7-.8-.6-.3-1-.8-1.4-1.3-.3-.6-.5-1.3-.5-2.2s.2-1.7.7-2.4c.5-.7,1.1-1.2,1.9-1.6.8-.4,1.8-.6,3-.6s2.3.2,3.2.6c1,.4,1.8,1.1,2.4,1.9l-2.4,2.4c-.4-.5-.9-.9-1.5-1.2-.5-.2-1.1-.4-1.8-.4s-1,0-1.3.3c-.3.2-.4.4-.4.8s.2.6.5.8c.4.2.8.4,1.4.5s1.1.3,1.7.5,1.2.4,1.7.8c.6.3,1,.8,1.4,1.3.4.6.5,1.3.5,2.2,0,1.4-.5,2.6-1.5,3.4s-2.4,1.2-4.2,1.2h.1ZM78.2,30V9.5h3.9v20.5h-3.9ZM74.9,19v-3.4h10.7v3.4h-10.7ZM93.5,30.3c-1.3,0-2.5-.3-3.6-1s-1.9-1.6-2.5-2.7-.9-2.4-.9-3.8.3-2.7.9-3.9c.6-1.1,1.4-2,2.5-2.7,1.1-.7,2.2-1,3.6-1s2,.2,2.8.6c.8.4,1.5,1,2,1.8.5.7.8,1.6.8,2.5v5.2c0,1-.3,1.8-.8,2.5s-1.1,1.3-2,1.8c-.8.4-1.8.6-2.8.6h0ZM94.2,26.7c1.1,0,2-.4,2.7-1.1s1-1.7,1-2.9-.2-1.4-.5-2-.7-1.1-1.3-1.4c-.5-.3-1.2-.5-1.9-.5s-1.4.2-1.9.5-1,.8-1.3,1.4-.4,1.2-.4,2,.2,1.5.4,2.1c.3.6.8,1,1.3,1.4.6.3,1.2.5,1.9.5ZM97.7,30v-3.9l.6-3.5-.6-3.5v-3.6h3.9v14.5h-3.9ZM107.2,30V9.5h3.9v20.5h-3.9ZM103.8,19v-3.4h10.7v3.4h-10.7ZM123.3,30.3c-1.5,0-2.9-.3-4.1-1s-2.1-1.6-2.8-2.7c-.7-1.1-1-2.4-1-3.9s.3-2.7,1-3.8c.7-1.1,1.6-2,2.8-2.7,1.2-.7,2.4-1,3.9-1s2.6.3,3.7,1c1.1.6,1.9,1.5,2.5,2.6s.9,2.3.9,3.7,0,.5,0,.8,0,.6-.1.9h-12.2v-2.9h10.3l-1.6,1.2c0-.9-.2-1.6-.5-2.2s-.6-1-1.2-1.3c-.5-.3-1.1-.5-1.9-.5s-1.5.2-2,.5c-.6.3-1,.8-1.3,1.5-.3.6-.4,1.4-.4,2.2s.2,1.6.5,2.3c.3.6.8,1.1,1.4,1.5.6.3,1.3.5,2.2.5s1.4-.1,2-.4,1.1-.6,1.6-1.1l2.3,2.3c-.7.8-1.6,1.4-2.6,1.9-1,.4-2.1.6-3.3.6h0Z"/>
  <rect class="st1" width="232" height="39"/>
  <g class="st4">
    <text class="st2" transform="translate(42.4 31.5)"><tspan x="0" y="0">Quick-Estate</tspan></text>
  </g>
  <path class="st0" d="M21.1,36.8c9.4,0,17-7.6,17-17S30.5,2.8,21.1,2.8,4.1,10.4,4.1,19.8s7.6,17,17,17ZM26.4,10.6c.3-.9-.6-1.5-1.4-.9l-11.3,8.1c-.9.6-.7,1.9.2,1.9h8.8l-4.7,1.7-2.1,7.4c-.3.9.6,1.5,1.4.9l11.3-8.1c.9-.6.7-1.9-.2-1.9h-4.5l2.6-9.1h-.1Z"/>
</svg>